<?xml version="1.0" encoding="UTF-8" standalone="no"?>
<!-- Created with Inkscape (http://www.inkscape.org/) -->

<svg
   xmlns:dc="http://purl.org/dc/elements/1.1/"
   xmlns:cc="http://creativecommons.org/ns#"
   xmlns:rdf="http://www.w3.org/1999/02/22-rdf-syntax-ns#"
   xmlns:svg="http://www.w3.org/2000/svg"
   xmlns="http://www.w3.org/2000/svg"
   xmlns:sodipodi="http://sodipodi.sourceforge.net/DTD/sodipodi-0.dtd"
   xmlns:inkscape="http://www.inkscape.org/namespaces/inkscape"
   id="svg2"
   version="1.1"
   inkscape:version="0.48+devel r12693"
   width="48"
   height="48"
   viewBox="0 0 48 48"
   sodipodi:docname="icon-48-ldpi.svg"
   inkscape:export-filename="/home/felipe/devel/tangibl.me/tangiblme/www/res/icon/android/icon-48-ldpi.png"
   inkscape:export-xdpi="90"
   inkscape:export-ydpi="90">
  <metadata
     id="metadata8">
    <rdf:RDF>
      <cc:Work
         rdf:about="">
        <dc:format>image/svg+xml</dc:format>
        <dc:type
           rdf:resource="http://purl.org/dc/dcmitype/StillImage" />
        <dc:title></dc:title>
      </cc:Work>
    </rdf:RDF>
  </metadata>
  <defs
     id="defs6" />
  <sodipodi:namedview
     pagecolor="#ffffff"
     bordercolor="#666666"
     borderopacity="1"
     objecttolerance="10"
     gridtolerance="10"
     guidetolerance="10"
     inkscape:pageopacity="0"
     inkscape:pageshadow="2"
     inkscape:window-width="1918"
     inkscape:window-height="1010"
     id="namedview4"
     showgrid="false"
     inkscape:zoom="11.972222"
     inkscape:cx="31.697198"
     inkscape:cy="28.929788"
     inkscape:window-x="0"
     inkscape:window-y="0"
     inkscape:window-maximized="1"
     inkscape:current-layer="svg2"
     fit-margin-top="0"
     fit-margin-left="0"
     fit-margin-right="0"
     fit-margin-bottom="0" />
  <g
     id="g3350"
     transform="scale(1.3333333,1.3333333)">
    <path
       id="path15521"
       d="m 18.892578,6.3339844 -0.144531,0.027344 -0.126953,0.068359 -0.103516,0.1074219 -1.886719,2.7753906 -1.886718,2.7734381 -1.886719,2.773437 -1.888672,2.773437 -0.867188,0 -0.8691401,0 -0.8691407,0.002 -0.8671874,0 -0.1132813,0.01367 -0.1054687,0.04102 -0.091797,0.06445 -0.074219,0.08594 -1.0878906,1.597656 -1.0878906,1.597656 -1.0878907,1.59961 -1.0878906,1.597656 -0.056641,0.113281 -0.023437,0.123047 0.00977,0.125 0.042969,0.119141 0.076172,0.101562 0.095703,0.07813 0.1152343,0.05078 0.125,0.01563 1.5234376,0 1.5214843,0 1.5234375,0 1.5214844,0 0.1132812,-0.01172 0.1035157,-0.04102 0.09375,-0.06445 0.074219,-0.08594 1.7089847,-2.511718 1.708984,-2.511719 1.708985,-2.511719 1.708984,-2.511719 0,2.447266 0,2.445312 0,2.447266 0,2.445313 0.02344,0.148437 0.06836,0.128906 0.103516,0.101563 0.132812,0.06641 0.03516,0.0098 0.0332,0.0059 0.03516,0.0039 0.0332,0.002 0.002,0 0.111328,-0.01367 0.103516,-0.04102 0.09375,-0.0625 0.07617,-0.08789 1.708984,-2.511718 1.708984,-2.511719 1.708985,-2.511719 1.708984,-2.511719 0,2.447266 0,2.445312 0,2.447266 0,2.445313 0.0098,0.0918 0.02734,0.08594 0.04102,0.08008 0.05859,0.07227 0.07227,0.05859 0.08008,0.04102 0.08594,0.02734 0.0918,0.0078 0.929687,0 0.931641,0 0.927735,0 0.93164,0 0.111328,-0.01563 0.105469,-0.03906 0.09375,-0.06445 0.07422,-0.08594 1.08789,-1.597656 1.087891,-1.599609 1.087891,-1.597657 1.08789,-1.597656 0.05469,-0.115234 0.02539,-0.123047 L 33.134766,18 l -0.04297,-0.119141 -0.07422,-0.103515 -0.09766,-0.07813 -0.113281,-0.04883 -0.126953,-0.01758 -1.404297,0 -1.40625,0 -1.404297,0 -1.40625,0 0,-2.708984 0,-2.707031 0,-2.7089845 0,-2.7089844 -0.02344,-0.1464843 -0.06836,-0.1289063 -0.103516,-0.1035156 -0.134765,-0.064453 -0.146485,-0.021484 -0.144531,0.025391 -0.128906,0.070312 -0.101563,0.1074219 -1.708984,2.5117187 -1.708985,2.5117185 -1.708984,2.511719 -1.708984,2.511718 0,-2.445312 0,-2.447266 0,-2.4453118 0,-2.4472657 -0.02539,-0.1464843 -0.06641,-0.1289063 -0.103516,-0.1035156 -0.134765,-0.066406 -0.148438,-0.019531 z M 18.4375,8.3125 l 0,2.447266 0,2.445312 0,2.447266 0,2.445312 0.02344,0.148438 0.06836,0.128906 0.103515,0.101562 0.132813,0.06641 0.148437,0.02148 0.144532,-0.02734 0.128906,-0.06836 0.101562,-0.109375 1.708985,-2.511719 1.708984,-2.511718 1.708985,-2.511719 L 26.125,8.3125 l 0,2.447266 0,2.445312 0,2.447266 0,2.445312 0.0098,0.0918 0.02539,0.08789 0.04297,0.08008 0.05859,0.07031 0.07031,0.05859 0.08008,0.04297 0.08789,0.02539 0.0918,0.0098 1.300781,0 1.302734,0 1.300782,0 1.302734,0 -0.929687,1.365235 -0.929688,1.365234 -0.929687,1.367187 -0.929688,1.365235 -0.751953,0 -0.75,0.002 -0.751953,0 -0.751953,0 0,-2.708985 0,-2.707031 0,-2.708984 0,-2.707031 -0.02344,-0.148438 -0.06836,-0.128906 -0.103516,-0.101563 -0.134765,-0.06641 -0.146485,-0.02148 -0.144531,0.02734 -0.128906,0.06836 -0.101563,0.107422 -1.708984,2.511718 -1.710938,2.511719 -1.707031,2.511719 -1.708984,2.511719 0,-2.445313 0,-2.445312 0,-2.447266 0,-2.445312 -0.02344,-0.148438 -0.06836,-0.128906 -0.103516,-0.101563 -0.134765,-0.06641 -0.148438,-0.02148 -0.142578,0.02734 -0.128906,0.06836 -0.103516,0.107422 -1.886719,2.77539 -1.886718,2.773438 -1.886719,2.773437 -1.888672,2.773438 -1.2382812,0 -1.2421876,0 -1.2382812,0 -1.2402344,0 0.9296875,-1.365235 0.9277344,-1.365234 0.9296875,-1.367187 0.9296875,-1.365235 0.8671875,0 0.8691406,0 0.8691404,0 0.867188,-0.002 0.113281,-0.01367 0.105469,-0.04102 0.0918,-0.0625 0.07617,-0.08594 1.707032,-2.511719 1.708984,-2.511718 1.708984,-2.511719 L 18.4375,8.3125 Z M 0,10.365234 l 0,10.742188 4.1171875,0 0.2910156,-0.429688 1.0878907,-1.597656 1.109375,-1.630859 0.1523437,-0.173828 0.2207031,-0.152344 0.25,-0.09766 0.2285156,-0.02734 0.90625,0 0.8691407,0 0.8671871,-0.002 0.533203,0 1.697266,-2.494141 1.886719,-2.775391 0.927734,-1.361328 -15.144531,0 z m 27.693359,0 0,1.851563 0,2.707031 0,2.072266 0.769532,0 1.40625,0 1.404297,0 1.449218,0 0.25586,0.03516 0.271484,0.117188 0.232422,0.1875 0.175781,0.24414 0.103516,0.283203 0.02344,0.296875 -0.05469,0.292969 -0.115235,0.228516 -1.111328,1.634765 -0.539062,0.791016 4.035156,0 0,-10.742188 -8.306641,0 z"
       style="fill:#800000;fill-opacity:1;stroke:none"
       inkscape:connector-curvature="0" />
    <rect
       ry="0.026082095"
       y="0"
       x="0"
       height="36"
       width="36"
       id="rect3348"
       style="opacity:0.35100002;fill:none;stroke:none" />
  </g>
</svg>
