<?xml version="1.0" encoding="UTF-8" standalone="no"?>
<!-- Created with Inkscape (http://www.inkscape.org/) -->

<svg
   xmlns:dc="http://purl.org/dc/elements/1.1/"
   xmlns:cc="http://creativecommons.org/ns#"
   xmlns:rdf="http://www.w3.org/1999/02/22-rdf-syntax-ns#"
   xmlns:svg="http://www.w3.org/2000/svg"
   xmlns="http://www.w3.org/2000/svg"
   xmlns:sodipodi="http://sodipodi.sourceforge.net/DTD/sodipodi-0.dtd"
   xmlns:inkscape="http://www.inkscape.org/namespaces/inkscape"
   id="svg2"
   version="1.1"
   inkscape:version="0.48+devel r12693"
   width="36"
   height="36"
   viewBox="0 0 36 36"
   sodipodi:docname="icon-36-ldpi.svg"
   inkscape:export-filename="/home/felipe/devel/tangibl.me/tangiblme/www/res/icon/android/icon-36-ldpi.png"
   inkscape:export-xdpi="90"
   inkscape:export-ydpi="90">
  <metadata
     id="metadata8">
    <rdf:RDF>
      <cc:Work
         rdf:about="">
        <dc:format>image/svg+xml</dc:format>
        <dc:type
           rdf:resource="http://purl.org/dc/dcmitype/StillImage" />
        <dc:title></dc:title>
      </cc:Work>
    </rdf:RDF>
  </metadata>
  <defs
     id="defs6" />
  <sodipodi:namedview
     pagecolor="#ffffff"
     bordercolor="#666666"
     borderopacity="1"
     objecttolerance="10"
     gridtolerance="10"
     guidetolerance="10"
     inkscape:pageopacity="0"
     inkscape:pageshadow="2"
     inkscape:window-width="1918"
     inkscape:window-height="1010"
     id="namedview4"
     showgrid="false"
     inkscape:zoom="11.972222"
     inkscape:cx="17.247082"
     inkscape:cy="28.929789"
     inkscape:window-x="0"
     inkscape:window-y="0"
     inkscape:window-maximized="1"
     inkscape:current-layer="svg2" />
  <g
     id="g3350">
    <path
       id="path15521"
       d="M 18.892578 6.3339844 L 18.748047 6.3613281 L 18.621094 6.4296875 L 18.517578 6.5371094 L 16.630859 9.3125 L 14.744141 12.085938 L 12.857422 14.859375 L 10.96875 17.632812 L 10.101562 17.632812 L 9.2324219 17.632812 L 8.3632812 17.634766 L 7.4960938 17.634766 L 7.3828125 17.648438 L 7.2773438 17.689453 L 7.1855469 17.753906 L 7.1113281 17.839844 L 6.0234375 19.4375 L 4.9355469 21.035156 L 3.8476562 22.634766 L 2.7597656 24.232422 L 2.703125 24.345703 L 2.6796875 24.46875 L 2.6894531 24.59375 L 2.7324219 24.712891 L 2.8085938 24.814453 L 2.9042969 24.892578 L 3.0195312 24.943359 L 3.1445312 24.958984 L 4.6679688 24.958984 L 6.1894531 24.958984 L 7.7128906 24.958984 L 9.234375 24.958984 L 9.3476562 24.947266 L 9.4511719 24.90625 L 9.5449219 24.841797 L 9.6191406 24.755859 L 11.328125 22.244141 L 13.037109 19.732422 L 14.746094 17.220703 L 16.455078 14.708984 L 16.455078 17.15625 L 16.455078 19.601562 L 16.455078 22.048828 L 16.455078 24.494141 L 16.478516 24.642578 L 16.546875 24.771484 L 16.650391 24.873047 L 16.783203 24.939453 L 16.818359 24.949219 L 16.851562 24.955078 L 16.886719 24.958984 L 16.919922 24.960938 L 16.921875 24.960938 L 17.033203 24.947266 L 17.136719 24.90625 L 17.230469 24.84375 L 17.306641 24.755859 L 19.015625 22.244141 L 20.724609 19.732422 L 22.433594 17.220703 L 24.142578 14.708984 L 24.142578 17.15625 L 24.142578 19.601562 L 24.142578 22.048828 L 24.142578 24.494141 L 24.152344 24.585938 L 24.179688 24.671875 L 24.220703 24.751953 L 24.279297 24.824219 L 24.351562 24.882812 L 24.431641 24.923828 L 24.517578 24.951172 L 24.609375 24.958984 L 25.539062 24.958984 L 26.470703 24.958984 L 27.398438 24.958984 L 28.330078 24.958984 L 28.441406 24.943359 L 28.546875 24.904297 L 28.640625 24.839844 L 28.714844 24.753906 L 29.802734 23.15625 L 30.890625 21.556641 L 31.978516 19.958984 L 33.066406 18.361328 L 33.121094 18.246094 L 33.146484 18.123047 L 33.134766 18 L 33.091797 17.880859 L 33.017578 17.777344 L 32.919922 17.699219 L 32.806641 17.650391 L 32.679688 17.632812 L 31.275391 17.632812 L 29.869141 17.632812 L 28.464844 17.632812 L 27.058594 17.632812 L 27.058594 14.923828 L 27.058594 12.216797 L 27.058594 9.5078125 L 27.058594 6.7988281 L 27.035156 6.6523438 L 26.966797 6.5234375 L 26.863281 6.4199219 L 26.728516 6.3554688 L 26.582031 6.3339844 L 26.4375 6.359375 L 26.308594 6.4296875 L 26.207031 6.5371094 L 24.498047 9.0488281 L 22.789062 11.560547 L 21.080078 14.072266 L 19.371094 16.583984 L 19.371094 14.138672 L 19.371094 11.691406 L 19.371094 9.2460938 L 19.371094 6.7988281 L 19.345703 6.6523438 L 19.279297 6.5234375 L 19.175781 6.4199219 L 19.041016 6.3535156 L 18.892578 6.3339844 z M 18.4375 8.3125 L 18.4375 10.759766 L 18.4375 13.205078 L 18.4375 15.652344 L 18.4375 18.097656 L 18.460938 18.246094 L 18.529297 18.375 L 18.632812 18.476562 L 18.765625 18.542969 L 18.914062 18.564453 L 19.058594 18.537109 L 19.1875 18.46875 L 19.289062 18.359375 L 20.998047 15.847656 L 22.707031 13.335938 L 24.416016 10.824219 L 26.125 8.3125 L 26.125 10.759766 L 26.125 13.205078 L 26.125 15.652344 L 26.125 18.097656 L 26.134766 18.189453 L 26.160156 18.277344 L 26.203125 18.357422 L 26.261719 18.427734 L 26.332031 18.486328 L 26.412109 18.529297 L 26.5 18.554688 L 26.591797 18.564453 L 27.892578 18.564453 L 29.195312 18.564453 L 30.496094 18.564453 L 31.798828 18.564453 L 30.869141 19.929688 L 29.939453 21.294922 L 29.009766 22.662109 L 28.080078 24.027344 L 27.328125 24.027344 L 26.578125 24.029297 L 25.826172 24.029297 L 25.074219 24.029297 L 25.074219 21.320312 L 25.074219 18.613281 L 25.074219 15.904297 L 25.074219 13.197266 L 25.050781 13.048828 L 24.982422 12.919922 L 24.878906 12.818359 L 24.744141 12.751953 L 24.597656 12.730469 L 24.453125 12.757812 L 24.324219 12.826172 L 24.222656 12.933594 L 22.513672 15.445312 L 20.802734 17.957031 L 19.095703 20.46875 L 17.386719 22.980469 L 17.386719 20.535156 L 17.386719 18.089844 L 17.386719 15.642578 L 17.386719 13.197266 L 17.363281 13.048828 L 17.294922 12.919922 L 17.191406 12.818359 L 17.056641 12.751953 L 16.908203 12.730469 L 16.765625 12.757812 L 16.636719 12.826172 L 16.533203 12.933594 L 14.646484 15.708984 L 12.759766 18.482422 L 10.873047 21.255859 L 8.984375 24.029297 L 7.7460938 24.029297 L 6.5039062 24.029297 L 5.265625 24.029297 L 4.0253906 24.029297 L 4.9550781 22.664062 L 5.8828125 21.298828 L 6.8125 19.931641 L 7.7421875 18.566406 L 8.609375 18.566406 L 9.4785156 18.566406 L 10.347656 18.566406 L 11.214844 18.564453 L 11.328125 18.550781 L 11.433594 18.509766 L 11.525391 18.447266 L 11.601562 18.361328 L 13.308594 15.849609 L 15.017578 13.337891 L 16.726562 10.826172 L 18.4375 8.3125 z M 0 10.365234 L 0 21.107422 L 4.1171875 21.107422 L 4.4082031 20.677734 L 5.4960938 19.080078 L 6.6054688 17.449219 L 6.7578125 17.275391 L 6.9785156 17.123047 L 7.2285156 17.025391 L 7.4570312 16.998047 L 8.3632812 16.998047 L 9.2324219 16.998047 L 10.099609 16.996094 L 10.632812 16.996094 L 12.330078 14.501953 L 14.216797 11.726562 L 15.144531 10.365234 L 0 10.365234 z M 27.693359 10.365234 L 27.693359 12.216797 L 27.693359 14.923828 L 27.693359 16.996094 L 28.462891 16.996094 L 29.869141 16.996094 L 31.273438 16.996094 L 32.722656 16.996094 L 32.978516 17.03125 L 33.25 17.148438 L 33.482422 17.335938 L 33.658203 17.580078 L 33.761719 17.863281 L 33.785156 18.160156 L 33.730469 18.453125 L 33.615234 18.681641 L 32.503906 20.316406 L 31.964844 21.107422 L 36 21.107422 L 36 10.365234 L 27.693359 10.365234 z "
       style="fill:#800000;fill-opacity:1;stroke:none" />
    <rect
       ry="0.026082095"
       y="0"
       x="0"
       height="36"
       width="36"
       id="rect3348"
       style="opacity:0.35100002;fill:none;fill-opacity:1;stroke:none" />
  </g>
</svg>
